<?xml version="1.0" encoding="UTF-8"?>
<svg id="Livello_1" xmlns="http://www.w3.org/2000/svg" version="1.1" viewBox="0 0 342 342">
  <!-- Generator: Adobe Illustrator 30.3.0, SVG Export Plug-In . SVG Version: 2.1.3 Build 182)  -->
  <defs>
    <style>
      .st0 {
        fill: #b7df4f;
      }

      .st1 {
        fill: #b5dd45;
      }

      .st2 {
        fill: #e2e2e2;
      }

      .st3 {
        fill: #fefefe;
      }

      .st4 {
        fill: #bde749;
      }
    </style>
  </defs>
  <g id="sfondo">
    <rect class="st3" x="-95.04" y="423.08" width="506.15" height=".4"/>
    <path class="st1" d="M162.99,31.47c-1.02.65-2.55,1.63-3.64,1.07l-2.09-1.08c-.36-.19-.52-.41-.5-.62l6.22.65h.01Z"/>
    <path class="st1" d="M155.31,30.65c-.15-.01-.37.21-.43.3s-.28-.33-.4-.34c0-.34.25-.43.5-.34.21.06.28.19.33.4h0Z"/>
  </g>
  <g id="logo">
    <path class="st2" d="M95.71,199.19c-.37.24-.36.86.21.86h68.8c.27-.38.19-.64.21-.84,2.37,0,4.72-1.45,5.73-2.93,1.42-2.09,1.64-4.65.28-6.78-1.18-1.86-3.63-3.2-6.14-3.24l-60.41-.99c-11.78-.19-26.39-.96-36.01-7.33-5.99-3.95-9.04-10.21-8.33-17.49.89-9.18,6.04-17.18,13.72-22.44s16.72-7.5,26.17-7.49l62.47.16c7.55.01,14.59,2.1,20.9,5.76,9.32,5.42,14.7,14.93,14.74,25.81l-27.45-.03c-.55-4.45-3.88-7.04-8.27-7.27l-67.16-.03c-2.31,0-4.51,1.01-5.99,2.47-1.95,1.92-2.65,4.69-1.47,7.39.77,1.75,3.18,3.71,5.92,3.79l67.22,1.63c8.6-.65,16.74-.19,24.92,2.09,3.29,1.54,6.67,2.77,8.98,5.64,3.8,4.74,5.02,11.1,4.25,17.02-1.21,9.37-6.36,16.92-14.95,21.06-5.98,2.89-12.55,4.69-19.45,4.69l-69.11-.04c-7.58,0-14.7-2.32-20.97-6.05-8.42-5.02-13.33-13.56-14-23.21h27.08c-.03,4.48,3.48,7.81,8.15,7.81h-.03Z"/>
    <path class="st4" d="M147.1,311.91l-49.67-81.87,3.83-.09,49.05,81.1c41.68-5.25,76.5-32.38,96.23-68.58,9.12-16.87,14.62-35.25,16.47-54.58h13.47c-3.48,38.78-21.1,74.37-51.09,99.63-21.05,17.73-47.23,28.73-74.96,30.09l-3.34-5.71h.01Z"/>
    <path class="st4" d="M154.5,30.61c.12.03.34.43.4.34.06-.09.28-.31.43-.3l1.45.15c-.03.22.13.44.5.62l2.09,1.08c1.1.58,2.62-.41,3.64-1.07,10.45,1.1,20.16,4.31,29.87,8.44,13.69,5.8,25.96,13.93,37.03,23.86,27.56,25.13,44.28,60.13,46.75,97.68l-13.33.04c-2.13-27.56-12.09-53.6-28.86-75.24-11.71-14.98-26.05-27.41-42.83-36.32-11.07-5.88-22.57-10.39-34.93-11.97-.27-1.07-1.67-1.57-3.11-1.3-2.12.38-4.53-1.14-4.17-3.33.18-1.11,1.33-1.89,1.86-2.69,1.18-.19,2.19-.24,3.23,0h-.01Z"/>
    <path class="st4" d="M310.74,179.11l.18-.84-103.75.15c-1.7-2.86-3.58-5.24-6.1-8.05l109.75.1-5.34-12.54,35.16,16.74-35.13,16.8,5.24-12.36h-.01Z"/>
    <path class="st4" d="M10.72,185.39l11.71-6.23-18.23-.15c1.11-.8,2.6-1.01,3.39-2.32.56-.93.56-3.14,0-4.07-.8-1.33-2.26-1.52-3.39-2.32l18.44-.16-12.09-6.25,13.78.06,8.6,6.19,19.05.12c1.01,3.42,2.59,5.98,4.56,8.82l-24.23.09-7.43,6.41-14.13-.16h-.01Z"/>
    <path class="st4" d="M151.27,30.63c-.53.8-1.69,1.58-1.86,2.69-.36,2.19,2.07,3.71,4.17,3.33,1.42-.27,2.83.24,3.11,1.3l-6.36-.81-49.59,82.06c-1.44.01-2.55.15-3.73-.13l35.31-58.41,17.72-29.53c.18-.28.36-.64.56-.68.18-.04.37.04.68.18h0Z"/>
    <polygon class="st0" points="310.74 179.11 211.79 179.07 207.15 178.41 310.9 178.27 310.74 179.11"/>
    <path class="st3" d="M164.94,199.21c-.01.21.06.47-.21.84h-68.8c-.58,0-.59-.61-.21-.86h69.23-.01Z"/>
  </g>
</svg>